<?xml version="1.0" encoding="UTF-8"?>
<svg id="Ebene_1" data-name="Ebene 1" xmlns="http://www.w3.org/2000/svg" version="1.1" viewBox="0 0 500 500">
  <defs>
    <style>
      .cls-1 {
        fill: none;
      }

      .cls-1, .cls-2 {
        stroke-width: 0px;
      }

      .cls-2 {
        fill: #facc15;
      }
    </style>
  </defs>
  <path class="cls-1" d="M290.4,187.4v119.2c0,10.6-3.8,19.7-11.3,27.3-7.5,7.8-16.4,11.6-26.5,11.6s-19.8-2-26.5-6v17.2c7.6,3.2,16.4,4.8,26.5,4.8s26.1-5.6,37-16.8c11-11.2,16.5-23.9,16.5-38.3v-119.2h-15.7v.2ZM226.1,187.4v119.2c0,7.2,2,12.8,5.9,16.8s10.8,6,20.6,6,11.7-2.2,15.9-6.7c4.2-4.3,6.3-9.7,6.3-16.1v-119.2h-48.7,0ZM290.4,187.4v119.2c0,10.6-3.8,19.7-11.3,27.3-7.5,7.8-16.4,11.6-26.5,11.6s-19.8-2-26.5-6v17.2c7.6,3.2,16.4,4.8,26.5,4.8s26.1-5.6,37-16.8c11-11.2,16.5-23.9,16.5-38.3v-119.2h-15.7v.2ZM226.1,187.4v119.2c0,7.2,2,12.8,5.9,16.8s10.8,6,20.6,6,11.7-2.2,15.9-6.7c4.2-4.3,6.3-9.7,6.3-16.1v-119.2h-48.7,0ZM226.1,187.4v119.2c0,7.2,2,12.8,5.9,16.8s10.8,6,20.6,6,11.7-2.2,15.9-6.7c4.2-4.3,6.3-9.7,6.3-16.1v-119.2h-48.7,0ZM290.4,187.4v119.2c0,10.6-3.8,19.7-11.3,27.3-7.5,7.8-16.4,11.6-26.5,11.6s-19.8-2-26.5-6v17.2c7.6,3.2,16.4,4.8,26.5,4.8s26.1-5.6,37-16.8c11-11.2,16.5-23.9,16.5-38.3v-119.2h-15.7v.2ZM147.9,187.4v293.2h205.2V187.4"/>
  <g>
    <path class="cls-2" d="M197.5,406.1h-8c-1.6,0-3,1.4-3,3.1v44.5c0,1.7,1.3,3.1,3,3.1h8c1.6,0,3-1.4,3-3.1v-44.5c0-1.7-1.3-3.1-3-3.1Z"/>
    <path class="cls-2" d="M197.5,324.3h-8c-1.6,0-3,1.4-3,3.1v45.9c0,1.7,1.3,3.1,3,3.1h8.1c1.6,0,2.9-1.4,2.9-3.1v-45.9c0-1.7-1.3-3.1-3-3.1Z"/>
    <path class="cls-2" d="M342.3,193.6v-60.8c0-16-4-30.8-11.9-44.5-8.1-13.8-19.3-24.8-33.7-33.1-14.6-8.3-30.7-12.5-48.3-12.5s-30.3,4.2-44.3,12.5h0c-13.9,8.2-25,19.2-33.3,33.1-8.3,13.9-12.5,28.7-12.5,44.5v80.3h0v240.6c0,1.7,1.4,3.1,3,3.1h8c1.7,0,3-1.4,3-3.1V193.8h0v-61c0-20.1,7.7-37.8,23-53,15.3-15.3,33-23,53-23s29.4,3.6,41.7,10.7c12.4,7,21.8,16.3,28.5,27.9,6.5,11.4,9.7,23.9,9.7,37.4v80.3h0v87.7c0,20.8-7.7,39-23,54.6-15.3,15.8-33,23.7-53,23.7s-16.3-1.1-23.8-3.3v-14.8c7.2,2.4,15.1,3.6,23.8,3.6,16.1,0,30.5-6.4,43.1-19.3,12.6-12.8,18.9-27.7,18.9-44.6v-106.9h-.1v-61c0-17.2-6-31.8-17.9-43.9-12.1-12.1-28.1-18.1-48-18.1s-30.5,6.2-43.1,18.7h.1c-12.6,12.5-18.9,26.9-18.9,43.3v158.7c0,1.7,1.4,3.1,3,3.1h8c1.7,0,3-1.4,3-3.1v-158.7c0-12.5,4.9-23.6,14.8-33.3,9.7-9.8,20.8-14.6,33.1-14.6s29.3,4.7,38.4,14c9,9.2,13.5,20.5,13.5,33.9v80.3h.1v87.6c0,12.9-4.9,24.3-14.8,34.3-9.7,10-20.8,15.1-33.1,15.1s-17-1.5-23.8-4.4v-15.5c6,3.6,13.9,5.3,23.8,5.3s17-3.5,23.8-10.4c6.8-6.8,10.1-15,10.1-24.5v-106.9h-.1v-60.8c0-22.6-15.8-33.8-37.8-33.9s-17,3.4-23.8,10.1h0c-6.8,6.5-10.1,14.5-10.1,23.7v80.3h.1v240.5c0,1.7,1.4,3.1,3,3.1h8c1.7,0,3-1.4,3-3.1v-63.1c7.6,1.9,15.5,2.8,23.8,2.8,15.6,0,30.3-4.3,44.3-12.9,13.9-8.4,25-19.8,33.3-34.1,8.3-14.3,12.5-29.6,12.5-45.8v-106.9h-.3.2ZM234.3,118.8c3.8-3.9,8.5-5.8,14.2-5.8,8.8,0,15,1.8,18.5,5.3s5.3,8.4,5.3,14.6v80.3h.1v87.4c0,5.8-1.9,10.6-5.7,14.5-3.8,4-8.5,6-14.2,6-8.8,0-15-1.8-18.5-5.4s-5.3-8.6-5.3-15.1v-106.9h-.1v-60.9c0-5.6,1.9-10.3,5.7-14h0Z"/>
  </g>
</svg>