<?xml version="1.0" encoding="UTF-8"?>
<svg id="Ebene_1" data-name="Ebene 1" xmlns="http://www.w3.org/2000/svg" version="1.1" viewBox="0 0 500 500">
  <defs>
    <style>
      .cls-1 {
        fill: #facc15;
        stroke-width: 0px;
      }
    </style>
  </defs>
  <path class="cls-1" d="M185.1,243.2c0-.6.4-1,1-1h115.9c19.2,0,35.4-6.4,48.7-19.3,13.4-13.1,20.1-31.4,20.1-55.1s-7-33.6-21-47.5c-14-14.2-29.9-21.3-47.8-21.3h-171.8c-.6,0-1,.4-1,1v360.4c0,.6-.4,1-1,1h-18.1c-.6,0-1-.4-1-1V79.9c0-.6.4-1,1-1h192c23.5,0,44.2,9,62.1,27.1,17.9,18.1,26.8,38.7,26.8,61.8s-8.7,51.5-26,68.8c-17.3,17.2-38.3,25.7-62.9,25.7h-115.9c-.6,0-1-.4-1-1v-18.1ZM185.1,283.4c0-.6.4-1,1-1h115.9c19.4,0,37.3-4.7,53.7-14,16.6-9.5,29.9-23.1,40-40.8,10.3-17.7,15.4-37.7,15.4-59.8s-11-54.1-33-76.1c-21.8-22-47.2-33-76.1-33H89.9c-.6,0-1,.4-1,1v400.7c0,.6-.4,1-1,1h-18.1c-.6,0-1-.4-1-1V39.6c0-.6.4-1,1-1h232.2c22.6,0,43.8,6,63.8,17.9,19.9,11.9,35.8,27.9,47.5,47.8,11.9,19.9,17.9,41.1,17.9,63.5s-6,48.5-17.9,69.4c-11.9,20.7-27.8,36.8-47.5,48.4-19.6,11.4-40.8,17.1-63.8,17.1h-115.9c-.6,0-1-.4-1-1v-18.1ZM167.5,461.4h-16.1c-1.1,0-2-.9-2-2V121.1c0-1.1.9-2,2-2h150.7c13.2,0,24.6,4.8,34.1,14.5,9.7,9.7,14.5,21.1,14.5,34.1,0,36.2-16.2,54.3-48.7,54.3h-114.9c-1.1,0-2-.9-2-2v-16.1c0-1.1.9-2,2-2h114.9c8.9,0,15.9-2.5,21-7.6,5-5,7.6-13.9,7.6-26.6s-2.8-15-8.4-20.4c-5.4-5.4-12.1-8.1-20.1-8.1h-130.6c-1.1,0-2,.9-2,2v318.2c0,1.1-.9,2-2,2Z"/>
</svg>