<?xml version="1.0" encoding="UTF-8"?>
<svg id="Ebene_1" data-name="Ebene 1" xmlns="http://www.w3.org/2000/svg" version="1.1" viewBox="0 0 205.2 461.7">
  <defs>
    <style>
      .cls-1 {
        fill: none;
      }

      .cls-1, .cls-2 {
        stroke-width: 0px;
      }

      .cls-2 {
        fill: #facc15;
      }
    </style>
  </defs>
  <path class="cls-1" d="M142.6,168.4v119.2c0,10.6-3.8,19.7-11.3,27.3-7.5,7.8-16.4,11.6-26.5,11.6s-19.8-2-26.5-6v17.2c7.6,3.2,16.4,4.8,26.5,4.8s26.1-5.6,37-16.8c11-11.2,16.5-23.9,16.5-38.3v-119.2h-15.7ZM78.3,168.4v119.2c0,7.2,2,12.8,5.9,16.8,3.9,4,10.8,6,20.6,6s11.7-2.2,15.9-6.7c4.2-4.3,6.3-9.7,6.3-16.1v-119.2h-48.7ZM142.6,168.4v119.2c0,10.6-3.8,19.7-11.3,27.3-7.5,7.8-16.4,11.6-26.5,11.6s-19.8-2-26.5-6v17.2c7.6,3.2,16.4,4.8,26.5,4.8s26.1-5.6,37-16.8c11-11.2,16.5-23.9,16.5-38.3v-119.2h-15.7ZM78.3,168.4v119.2c0,7.2,2,12.8,5.9,16.8,3.9,4,10.8,6,20.6,6s11.7-2.2,15.9-6.7c4.2-4.3,6.3-9.7,6.3-16.1v-119.2h-48.7ZM78.3,168.4v119.2c0,7.2,2,12.8,5.9,16.8,3.9,4,10.8,6,20.6,6s11.7-2.2,15.9-6.7c4.2-4.3,6.3-9.7,6.3-16.1v-119.2h-48.7ZM142.6,168.4v119.2c0,10.6-3.8,19.7-11.3,27.3-7.5,7.8-16.4,11.6-26.5,11.6s-19.8-2-26.5-6v17.2c7.6,3.2,16.4,4.8,26.5,4.8s26.1-5.6,37-16.8c11-11.2,16.5-23.9,16.5-38.3v-119.2h-15.7ZM0,168.4v293.2h205.2V168.4"/>
  <g>
    <path class="cls-2" d="M46.9,408.6v49.6c0,1.9-1.5,3.5-3.4,3.5h-8.9c-1.9,0-3.4-1.6-3.4-3.5v-49.6c0-1.9,1.5-3.5,3.4-3.5h8.9c1.9,0,3.4,1.6,3.4,3.5Z"/>
    <path class="cls-2" d="M46.9,317.4v51.2c0,1.9-1.4,3.4-3.2,3.5,0,0-.1,0-.1,0h-8.9c-1.9,0-3.4-1.6-3.4-3.5v-51.2c0-1.9,1.5-3.5,3.4-3.5h8.9c1.9,0,3.4,1.6,3.4,3.5Z"/>
    <path class="cls-2" d="M189.5,168.4v27.2h0v92c0,23.1-8.5,43.4-25.7,60.9-17.1,17.6-36.8,26.4-59.1,26.4s-18.2-1.2-26.5-3.6v-16.5c8,2.7,16.8,4,26.5,4,18,0,34-7.2,48-21.5,14.1-14.3,21.1-30.9,21.1-49.7v-119.2h-15.6v119.2c0,14.3-5.5,27.1-16.5,38.3-10.9,11.2-23.2,16.8-37,16.8s-18.9-1.6-26.5-4.8v-17.2c6.7,4,15.5,6,26.5,6s19-3.9,26.5-11.6c7.5-7.6,11.3-16.7,11.3-27.3v-119.2h-15.6v119.2c0,6.4-2.1,11.8-6.3,16.1-4.2,4.5-9.5,6.7-15.9,6.7-9.9,0-16.7-2-20.6-6-3.9-4-5.9-9.6-5.9-16.8v-119.2h-15.6v289.8c0,1.9,1.5,3.5,3.4,3.5h8.9c1.9,0,3.4-1.5,3.4-3.5v-70.3c8.5,2.1,17.3,3.2,26.5,3.2,17.4,0,33.8-4.8,49.3-14.3,15.5-9.4,27.9-22.1,37.2-38,9.3-16,13.9-33,13.9-51v-119.2h-15.7ZM15.6,195.5v-27H0v289.8c0,1.9,1.5,3.5,3.4,3.5h8.9c1.9,0,3.4-1.5,3.4-3.5V195.5h0ZM31.3,168.4v108.9c0,1.9,1.5,3.5,3.4,3.5h8.9c1.9,0,3.4-1.6,3.4-3.5v-48.7h0v-60.2h-15.6Z"/>
  </g>
  <path class="cls-2" d="M52.4,52.2c-14.1,13.9-21.1,30-21.1,48.3v89.5s15.6,0,15.6,0v-89.5c0-13.9,5.5-26.3,16.5-37.2,10.9-10.9,23.2-16.3,37-16.3s32.7,5.2,42.8,15.7c10,10.3,15,22.9,15,37.8v89.5h15.6v-89.5c0-19.1-6.7-35.4-20-48.9-13.5-13.5-31.3-20.2-53.5-20.2s-34,7-48,20.9ZM52.4,52.2c-14.1,13.9-21.1,30-21.1,48.3v89.5s15.6,0,15.6,0v-89.5c0-13.9,5.5-26.3,16.5-37.2,10.9-10.9,23.2-16.3,37-16.3s32.7,5.2,42.8,15.7c10,10.3,15,22.9,15,37.8v89.5h15.6v-89.5c0-19.1-6.7-35.4-20-48.9-13.5-13.5-31.3-20.2-53.5-20.2s-34,7-48,20.9ZM51.1,13.9c-15.5,9.1-27.9,21.4-37.2,37C4.6,66.4,0,82.9,0,100.4v89.5h15.6s0-89.5,0-89.5c0-22.5,8.6-42.2,25.7-59.1,17.1-17.1,36.8-25.6,59.1-25.6,17.2,0,32.7,4,46.5,12,13.8,7.8,24.3,18.2,31.7,31.1,7.2,12.7,10.9,26.7,10.9,41.7v89.5h15.7v-89.5c0-17.8-4.4-34.3-13.3-49.6-9-15.4-21.5-27.7-37.6-37C138.1,4.6,120.1,0,100.4,0s-33.8,4.6-49.3,13.9ZM52.4,52.2c-14.1,13.9-21.1,30-21.1,48.3v89.5s15.6,0,15.6,0v-89.5c0-13.9,5.5-26.3,16.5-37.2,10.9-10.9,23.2-16.3,37-16.3s32.7,5.2,42.8,15.7c10,10.3,15,22.9,15,37.8v89.5h15.6v-89.5c0-19.1-6.7-35.4-20-48.9-13.5-13.5-31.3-20.2-53.5-20.2s-34,7-48,20.9ZM73.9,73.9c-7.5,7.4-11.3,16.2-11.3,26.5v89.5s15.7,0,15.7,0v-89.5c0-6.2,2.1-11.4,6.3-15.7,4.2-4.3,9.5-6.5,15.9-6.5,9.9,0,16.7,2,20.7,5.9,3.9,3.9,5.9,9.4,5.9,16.3v89.5s15.6,0,15.6,0v-89.5c0-25.2-14.1-37.8-42.2-37.8-10.1,0-19,3.8-26.5,11.3Z"/>
</svg>