<?xml version="1.0" encoding="UTF-8"?>
<svg id="Ebene_1" data-name="Ebene 1" xmlns="http://www.w3.org/2000/svg" version="1.1" viewBox="0 0 222.5 500.5">
  <defs>
    <style>
      .cls-1 {
        fill: #facc15;
        stroke-width: 0px;
      }
    </style>
  </defs>
  <path class="cls-1" d="M47.4,439.2h-9.7c-1.9,0-3.6,1.7-3.6,3.7v53.8c0,2.1,1.6,3.7,3.6,3.7h9.7c1.9,0,3.6-1.7,3.6-3.7v-53.8c0-2.1-1.6-3.7-3.6-3.7Z"/>
  <path class="cls-1" d="M47.4,340.4h-9.7c-1.9,0-3.6,1.7-3.6,3.7v55.5c0,2.1,1.6,3.7,3.6,3.7h9.8c1.9,0,3.5-1.7,3.5-3.7v-55.5c0-2.1-1.6-3.7-3.6-3.7Z"/>
  <path class="cls-1" d="M222.4,182.4v-73.5c0-19.3-4.8-37.2-14.4-53.8-9.8-16.7-23.3-30-40.7-40C149.6,5.1,130.2,0,108.9,0s-36.6,5.1-53.5,15.1h0c-16.8,9.9-30.2,23.2-40.2,40C5.1,71.9,0,89.8,0,108.9v97.1h0v290.8c0,2.1,1.7,3.7,3.6,3.7h9.7c2.1,0,3.6-1.7,3.6-3.7V182.6h0v-73.7c0-24.3,9.3-45.7,27.8-64.1,18.5-18.5,39.9-27.8,64.1-27.8s35.5,4.4,50.4,12.9c15,8.5,26.3,19.7,34.4,33.7,7.9,13.8,11.7,28.9,11.7,45.2v97.1h0v106c0,25.1-9.3,47.1-27.8,66-18.5,19.1-39.9,28.6-64.1,28.6s-19.7-1.3-28.8-4v-17.9c8.7,2.9,18.3,4.4,28.8,4.4,19.5,0,36.9-7.7,52.1-23.3,15.2-15.5,22.8-33.5,22.8-53.9v-129.2h-.1v-73.7c0-20.8-7.3-38.4-21.6-53.1-14.6-14.6-34-21.9-58-21.9s-36.9,7.5-52.1,22.6h.1c-15.2,15.1-22.8,32.5-22.8,52.3v191.8c0,2.1,1.7,3.7,3.6,3.7h9.7c2.1,0,3.6-1.7,3.6-3.7V108.9c0-15.1,5.9-28.5,17.9-40.2,11.7-11.8,25.1-17.6,40-17.6s35.4,5.7,46.4,16.9c10.9,11.1,16.3,24.8,16.3,41v97.1h.1v105.9c0,15.6-5.9,29.4-17.9,41.5-11.7,12.1-25.1,18.3-40,18.3s-20.5-1.8-28.8-5.3v-18.7c7.3,4.4,16.8,6.4,28.8,6.4s20.5-4.2,28.8-12.6c8.2-8.2,12.2-18.1,12.2-29.6v-129.2h-.1v-73.5c0-27.3-19.1-40.8-45.7-41-10.3,0-20.5,4.1-28.8,12.2h0c-8.2,7.9-12.2,17.5-12.2,28.6v97.1h.1v290.7c0,2.1,1.7,3.7,3.6,3.7h9.7c2.1,0,3.6-1.7,3.6-3.7v-76.3c9.2,2.3,18.7,3.4,28.8,3.4,18.9,0,36.6-5.2,53.5-15.6,16.8-10.2,30.2-23.9,40.2-41.2,10-17.3,15.1-35.8,15.1-55.4v-129.2h-.4.2ZM91.9,92c4.6-4.7,10.3-7,17.2-7,10.6,0,18.1,2.2,22.4,6.4s6.4,10.2,6.4,17.6v97.1h.1v105.6c0,7-2.3,12.8-6.9,17.5-4.6,4.8-10.3,7.3-17.2,7.3-10.6,0-18.1-2.2-22.4-6.5s-6.4-10.4-6.4-18.3v-129.2h-.1v-73.6c0-6.8,2.3-12.4,6.9-16.9h0Z"/>
</svg>