<?xml version="1.0" standalone="no"?>
<!DOCTYPE svg PUBLIC "-//W3C//DTD SVG 20010904//EN"
 "http://www.w3.org/TR/2001/REC-SVG-20010904/DTD/svg10.dtd">
<svg version="1.0" xmlns="http://www.w3.org/2000/svg"
 width="700.000000pt" height="700.000000pt" viewBox="0 0 700.000000 700.000000"
 preserveAspectRatio="xMidYMid meet">
<metadata>
Created by potrace 1.14, written by Peter Selinger 2001-2017
</metadata>
<g transform="translate(0.000000,700.000000) scale(0.100000,-0.100000)"
fill="#000000" stroke="none">
<path d="M0 3500 l0 -3500 3500 0 3500 0 0 3500 0 3500 -3500 0 -3500 0 0
-3500z m3755 2140 c273 -74 501 -259 620 -503 85 -175 87 -190 96 -712 10
-658 10 -1424 -1 -1535 -15 -155 -51 -266 -129 -403 -124 -216 -357 -397 -588
-458 -101 -27 -257 -35 -363 -20 -45 7 -88 15 -96 18 -11 4 -14 -50 -16 -338
l-3 -344 -67 -3 c-63 -3 -68 -1 -73 20 -3 13 -4 795 -3 1738 l3 1715 27 57
c73 155 225 233 409 208 147 -20 228 -73 278 -180 l26 -55 5 -420 c3 -231 3
-676 0 -990 l-5 -570 -23 -47 c-54 -109 -159 -191 -270 -208 -73 -12 -196 2
-258 29 l-44 20 0 -80 0 -80 38 -16 c112 -47 293 -40 410 17 133 65 264 228
292 363 7 37 10 348 8 1017 l-3 965 -22 57 c-48 125 -128 216 -238 268 -96 45
-189 63 -303 58 -91 -3 -106 -7 -177 -42 -145 -71 -268 -227 -294 -371 -5 -28
-10 -429 -10 -909 0 -691 -3 -861 -13 -867 -17 -11 -99 -11 -116 0 -10 6 -13
178 -13 897 0 986 -3 942 67 1075 64 121 198 258 308 313 92 46 167 59 311 54
107 -4 144 -10 210 -32 167 -57 292 -164 370 -317 74 -145 70 -79 70 -1189 l0
-995 -23 -65 c-75 -208 -251 -388 -443 -451 -64 -21 -91 -24 -199 -23 -76 1
-145 7 -177 16 l-53 15 0 -78 0 -78 52 -16 c68 -20 246 -20 346 1 189 39 378
170 501 349 62 89 96 164 122 264 18 70 19 124 19 1065 0 952 -1 994 -20 1073
-79 329 -353 561 -714 604 -238 28 -449 -43 -630 -212 -130 -121 -210 -253
-246 -402 -19 -80 -20 -123 -20 -1817 0 -1337 -3 -1739 -12 -1748 -17 -17
-113 -15 -127 2 -9 10 -11 463 -9 1772 l3 1759 22 77 c78 275 267 500 528 630
148 74 217 88 420 83 125 -2 177 -8 240 -25z m-780 -3190 l0 -265 -65 0 -65 0
-3 255 c-1 140 0 261 3 268 3 9 23 12 67 10 l63 -3 0 -265z m3 -849 c2 -197
-1 -256 -10 -263 -15 -9 -89 -11 -112 -2 -14 5 -16 38 -16 258 0 139 3 256 7
260 4 4 34 6 68 4 l60 -3 3 -254z"/>
<path d="M3392 4915 c-34 -18 -63 -42 -80 -68 l-27 -41 0 -955 0 -956 24 -41
c34 -60 87 -86 182 -92 44 -3 91 1 112 7 46 16 113 89 126 139 8 26 10 335 8
963 l-2 924 -25 45 c-35 63 -89 91 -188 97 -69 4 -82 2 -130 -22z"/>
</g>
</svg>
